<svg width="100" height="22" viewBox="0 0 100 22" fill="none" xmlns="http://www.w3.org/2000/svg">
<g clip-path="url(#clip0_13_6823)">
<path d="M81.8159 0.633057L76.3145 9.71899L71.4642 0.633057H67.3198L73.1134 11.4838V21.4339H77.5012V11.1856L83.8912 0.633057H81.8159Z" fill="black"/>
<path d="M45.3201 0.566162L37.7008 21.3244H39.8977L46.1538 4.26017L53.621 21.3244H57.7653L48.6855 0.566162H45.3201Z" fill="black"/>
<path d="M7.63145 0.633057L0 21.4339H2.19085L8.45302 4.36358L15.9262 21.4339H20.0706L10.9664 0.633057H7.63145Z" fill="black"/>
<path d="M38.851 9.16519C38.0173 4.24187 33.7512 0.633057 28.7549 0.633057H20.7096V21.4339H28.7549C33.7512 21.4339 38.0173 17.8251 38.851 12.9018V9.16519ZM34.9805 13.0661C34.8527 16.535 32.0472 19.31 28.5784 19.4074H24.6775V2.38573H28.5784C32.0533 2.47702 34.8527 5.25209 34.9805 8.72702V13.0661Z" fill="black"/>
<path d="M62.6582 0.633057H58.739V21.4339H69.8819V19.5048H62.6582V0.633057Z" fill="black"/>
<path d="M90.9141 0.566162H87.5487L79.9355 21.3244H82.1264L88.3886 4.26017L95.8557 21.3244H100L90.9141 0.566162Z" fill="black"/>
</g>
<defs>
<clipPath id="clip0_13_6823">
<rect width="100" height="20.8678" fill="white" transform="translate(0 0.566162)"/>
</clipPath>
</defs>
</svg>
