<svg width="33" height="32" viewBox="0 0 33 32" fill="none" xmlns="http://www.w3.org/2000/svg">
<g clip-path="url(#clip0_13_6638)">
<g clip-path="url(#clip1_13_6638)">
<g clip-path="url(#clip2_13_6638)">
<path d="M16.0659 2.88125C20.341 2.88125 20.8472 2.9 22.5285 2.97499C24.0909 3.04374 24.9347 3.30626 25.4971 3.52501C26.241 3.8125 26.7784 4.1625 27.3347 4.71875C27.8971 5.28125 28.241 5.8125 28.5285 6.55626C28.7472 7.11875 29.0096 7.96875 29.0784 9.52499C29.1534 11.2125 29.1722 11.7188 29.1722 15.9875C29.1722 20.2626 29.1534 20.7688 29.0784 22.4501C29.0096 24.0125 28.7472 24.8563 28.5285 25.4187C28.241 26.1626 27.8909 26.7 27.3347 27.2563C26.7722 27.8187 26.241 28.1626 25.4971 28.4501C24.9347 28.6688 24.0846 28.9312 22.5285 29C20.841 29.075 20.3347 29.0938 16.0659 29.0938C11.7909 29.0938 11.2847 29.075 9.60342 29C8.04093 28.9312 7.19717 28.6688 6.63467 28.4501C5.89093 28.1626 5.35342 27.8125 4.79717 27.2563C4.23467 26.6938 3.89093 26.1626 3.60342 25.4187C3.38467 24.8563 3.12217 24.0062 3.05342 22.4501C2.97841 20.7626 2.95966 20.2563 2.95966 15.9875C2.95966 11.7125 2.97841 11.2063 3.05342 9.52499C3.12217 7.9625 3.38467 7.11875 3.60342 6.55626C3.89093 5.8125 4.24093 5.27501 4.79717 4.71875C5.35966 4.15626 5.89093 3.8125 6.63467 3.52501C7.19717 3.30626 8.04717 3.04374 9.60342 2.97499C11.2847 2.9 11.7909 2.88125 16.0659 2.88125ZM16.0659 0C11.7222 0 11.1784 0.0187499 9.47217 0.0937501C7.77217 0.16875 6.60342 0.44375 5.59093 0.837501C4.53467 1.25 3.64093 1.79374 2.75342 2.6875C1.85966 3.57501 1.31592 4.46875 0.903419 5.51875C0.509668 6.5375 0.234668 7.7 0.159668 9.4C0.084668 11.1125 0.065918 11.6563 0.065918 16C0.065918 20.3437 0.084668 20.8875 0.159668 22.5938C0.234668 24.2938 0.509668 25.4626 0.903419 26.475C1.31592 27.5312 1.85966 28.425 2.75342 29.3125C3.64093 30.2 4.53467 30.7501 5.58467 31.1563C6.60342 31.5501 7.76592 31.825 9.46592 31.9C11.1722 31.975 11.7159 31.9938 16.0597 31.9938C20.4034 31.9938 20.9472 31.975 22.6534 31.9C24.3534 31.825 25.5222 31.5501 26.5347 31.1563C27.5846 30.7501 28.4784 30.2 29.3659 29.3125C30.2534 28.425 30.8034 27.5312 31.2096 26.4813C31.6034 25.4626 31.8784 24.3 31.9534 22.6C32.0285 20.8938 32.0472 20.3501 32.0472 16.0062C32.0472 11.6625 32.0285 11.1188 31.9534 9.4125C31.8784 7.7125 31.6034 6.54374 31.2096 5.53125C30.816 4.46875 30.2722 3.57501 29.3784 2.6875C28.4909 1.8 27.5971 1.25 26.5472 0.84375C25.5285 0.45 24.3659 0.175 22.6659 0.1C20.9534 0.0187501 20.4096 0 16.0659 0Z" fill="#FFCE79"/>
<path d="M16.0659 7.78125C11.5284 7.78125 7.84717 11.4625 7.84717 16C7.84717 20.5374 11.5284 24.2187 16.0659 24.2187C20.6034 24.2187 24.2846 20.5374 24.2846 16C24.2846 11.4625 20.6034 7.78125 16.0659 7.78125ZM16.0659 21.3312C13.1222 21.3312 10.7347 18.9437 10.7347 16C10.7347 13.0563 13.1222 10.6688 16.0659 10.6688C19.0096 10.6688 21.3971 13.0563 21.3971 16C21.3971 18.9437 19.0096 21.3312 16.0659 21.3312Z" fill="#FFCE79"/>
<path d="M26.5285 7.45635C26.5285 8.51885 25.666 9.3751 24.6096 9.3751C23.5472 9.3751 22.6909 8.51259 22.6909 7.45635C22.6909 6.39384 23.5535 5.5376 24.6096 5.5376C25.666 5.5376 26.5285 6.40009 26.5285 7.45635Z" fill="#FFCE79"/>
</g>
</g>
</g>
<defs>
<clipPath id="clip0_13_6638">
<rect width="32" height="32" fill="white" transform="translate(0.065918)"/>
</clipPath>
<clipPath id="clip1_13_6638">
<rect width="32" height="32" fill="white" transform="translate(0.065918)"/>
</clipPath>
<clipPath id="clip2_13_6638">
<rect width="32" height="32" fill="white" transform="translate(0.065918)"/>
</clipPath>
</defs>
</svg>
