<svg width="173" height="36" viewBox="0 0 173 36" fill="none" xmlns="http://www.w3.org/2000/svg">
<g clip-path="url(#clip0_283_1487)">
<path d="M141.144 0.115479L131.654 15.79L123.286 0.115479H116.136L126.131 18.8346V36H133.701V18.3202L144.724 0.115479H141.144Z" fill="white"/>
<path d="M78.1837 0L65.0393 35.811H68.8293L79.622 6.3727L92.5039 35.811H99.6535L83.9894 0H78.1837Z" fill="white"/>
<path d="M13.1654 0.115479L0 36H3.77953L14.5827 6.55117L27.4751 36H34.6247L18.9186 0.115479H13.1654Z" fill="white"/>
<path d="M67.0236 14.8346C65.5853 6.3412 58.2257 0.115479 49.6063 0.115479H35.7271V36H49.6063C58.2257 36 65.5853 29.7743 67.0236 21.2808V14.8346ZM60.3465 21.5643C60.126 27.5485 55.2861 32.3359 49.3019 32.5039H42.5722V3.1391H49.3019C55.2966 3.29658 60.126 8.08398 60.3465 14.0787V21.5643Z" fill="white"/>
<path d="M108.094 0.115479H101.333V36H120.556V32.6719H108.094V0.115479Z" fill="white"/>
<path d="M156.84 0H151.034L137.9 35.811H141.68L152.483 6.3727L165.365 35.811H172.515L156.84 0Z" fill="white"/>
</g>
<defs>
<clipPath id="clip0_283_1487">
<rect width="172.514" height="36" fill="white"/>
</clipPath>
</defs>
</svg>
