<svg width="34" height="25" viewBox="0 0 34 25" fill="none" xmlns="http://www.w3.org/2000/svg">
<path d="M33.162 4.56441C32.7731 3.11854 31.6331 1.97878 30.1874 1.58945C27.5464 0.866821 16.982 0.866821 16.982 0.866821C16.982 0.866821 6.41804 0.866821 3.77699 1.56205C2.35914 1.95097 1.19136 3.11874 0.802445 4.56441C0.107422 7.20525 0.107422 12.682 0.107422 12.682C0.107422 12.682 0.107422 18.1864 0.802445 20.7996C1.19177 22.2453 2.33133 23.385 3.7772 23.7743C6.44585 24.4972 16.9824 24.4972 16.9824 24.4972C16.9824 24.4972 27.5464 24.4972 30.1874 23.8019C31.6333 23.4128 32.7731 22.2731 33.1624 20.8274C33.8572 18.1864 33.8572 12.7098 33.8572 12.7098C33.8572 12.7098 33.885 7.20525 33.162 4.56441ZM13.6185 17.7416V7.62238L22.4034 12.682L13.6185 17.7416Z" fill="black"/>
</svg>
