<svg width="33" height="32" viewBox="0 0 33 32" fill="none" xmlns="http://www.w3.org/2000/svg">
<g clip-path="url(#clip0_13_6652)">
<g clip-path="url(#clip1_13_6652)">
<path d="M31.7472 9.59991C31.7472 9.59991 31.4347 7.39365 30.4722 6.42492C29.2534 5.14991 27.8909 5.14365 27.2659 5.06866C22.7909 4.74365 16.0722 4.74365 16.0722 4.74365H16.0597C16.0597 4.74365 9.34093 4.74365 4.86592 5.06866C4.24093 5.14365 2.87841 5.14991 1.65967 6.42492C0.697168 7.39365 0.390918 9.59991 0.390918 9.59991C0.390918 9.59991 0.065918 12.1937 0.065918 14.7812V17.2061C0.065918 19.7937 0.384668 22.3874 0.384668 22.3874C0.384668 22.3874 0.697168 24.5937 1.65342 25.5625C2.87217 26.8373 4.47217 26.7937 5.18467 26.9311C7.74717 27.1749 16.0659 27.25 16.0659 27.25C16.0659 27.25 22.7909 27.2373 27.2659 26.9186C27.8909 26.8436 29.2534 26.8373 30.4722 25.5625C31.4347 24.5937 31.7472 22.3874 31.7472 22.3874C31.7472 22.3874 32.0659 19.7999 32.0659 17.2061V14.7812C32.0659 12.1937 31.7472 9.59991 31.7472 9.59991ZM12.7597 20.15V11.1562L21.4034 15.6687L12.7597 20.15Z" fill="#FFCE79"/>
</g>
</g>
<defs>
<clipPath id="clip0_13_6652">
<rect width="32" height="32" fill="white" transform="translate(0.065918)"/>
</clipPath>
<clipPath id="clip1_13_6652">
<rect width="32" height="32" fill="white" transform="translate(0.065918)"/>
</clipPath>
</defs>
</svg>
