<svg width="64" height="64" viewBox="0 0 64 64" fill="none" xmlns="http://www.w3.org/2000/svg">
<path d="M31.9997 63.523C49.4094 63.523 63.5228 49.4096 63.5228 31.9999C63.5228 14.5902 49.4094 0.476807 31.9997 0.476807C14.5899 0.476807 0.476562 14.5902 0.476562 31.9999C0.476562 49.4096 14.5899 63.523 31.9997 63.523Z" stroke="#C6C6C6" stroke-miterlimit="10"/>
<path d="M46.4301 32.305C43.4638 27.7268 37.121 17.9026 31.465 9.13721C27.2206 16.1858 21.5073 25.0084 17.3392 31.8567C13.7338 38.7146 16.0039 46.7932 21.927 51.4192C27.7547 55.9688 35.738 56.007 41.6134 51.5241C47.6033 46.9459 50.6459 38.8004 46.4206 32.2955M40.7741 50.0648C35.6617 53.9658 28.0981 53.9944 23.0238 50.0362C17.4632 45.7727 15.5365 37.9897 18.913 32.6102C23.3004 25.8382 27.1729 19.2284 31.5794 12.218C36.5392 19.7912 40.5547 25.7429 45.0852 33.0681C48.91 39.2391 45.6098 46.1542 40.7741 50.0648Z" fill="#C6C6C6"/>
<path d="M43.78 35.6911C45.3537 39.1916 42.7785 45.6107 38.9347 48.3004C34.6807 51.2858 30.0548 51.4479 25.5624 48.8727C21.5946 46.5931 19.582 42.9973 19.6297 38.3999C19.6583 35.5671 21.3943 34.642 23.8837 35.3382C25.7817 35.8724 27.718 36.6163 29.3394 37.7037C33.0116 40.174 36.5502 40.0691 40.1651 37.8181C41.1189 37.2268 42.9215 33.7549 43.7895 35.6911" fill="#C6C6C6"/>
</svg>
