<svg width="64" height="64" viewBox="0 0 64 64" fill="none" xmlns="http://www.w3.org/2000/svg">
<path d="M63.5228 31.9999C63.5228 49.4068 49.4065 63.523 31.9997 63.523C14.5928 63.523 0.476562 49.4068 0.476562 31.9999C0.476562 14.5931 14.5928 0.476807 31.9997 0.476807C49.4065 0.476807 63.5228 14.5931 63.5228 31.9999Z" stroke="#C6C6C6" stroke-miterlimit="10"/>
<path d="M28.7384 35.4528H23.7977C23.1014 35.4528 22.615 34.9568 22.6055 34.2701C22.6055 31.0653 22.6055 27.851 22.6055 24.6367C22.6055 24.4268 22.6722 24.2552 22.8248 24.1025C24.6561 22.2617 26.4779 20.4209 28.3092 18.58C29.9211 16.949 31.5426 15.318 33.1545 13.6966C33.5456 13.3055 34.0225 13.1052 34.5757 13.1052C37.4466 13.1052 40.3271 13.1052 43.2076 13.1052C43.8657 13.1052 44.3712 13.6012 44.3712 14.2593C44.3712 16.8632 44.3712 19.4575 44.3712 22.0519C44.3712 22.586 44.19 23.0724 43.8466 23.4826C42.5113 25.1136 41.176 26.735 39.8406 28.366C37.9807 30.6265 36.1304 32.8966 34.2704 35.1571C34.1178 35.3478 33.9366 35.4337 33.6886 35.4337C32.0386 35.4337 30.3789 35.4337 28.7289 35.4337M24.5703 23.9404C24.5703 23.9404 24.5894 23.969 24.5989 23.9881C24.6275 23.9881 24.6657 23.9881 24.6943 23.9881C27.508 23.9881 30.3217 23.9881 33.1354 23.9881C33.1927 23.9881 33.269 23.9595 33.3071 23.9118C34.1274 23.0534 34.9476 22.1759 35.7679 21.3079C37.9235 19.0188 40.0791 16.7392 42.2442 14.4501C42.3014 14.3929 42.3491 14.3356 42.4254 14.2498H39.1062C37.6183 14.2498 36.1208 14.2498 34.6329 14.2498C34.3563 14.2498 34.1274 14.3452 33.9271 14.5359C33.6696 14.7935 33.412 15.0605 33.1545 15.318C33.1354 15.3371 33.1259 15.3562 33.1068 15.3943C33.2499 15.3943 33.3739 15.3943 33.4883 15.3943C33.5742 15.3943 33.6696 15.4134 33.7459 15.4516C33.9938 15.5756 34.0988 15.8331 34.0415 16.1002C33.9843 16.3481 33.7554 16.5294 33.4883 16.5294C33.0114 16.5294 32.5345 16.5294 32.0576 16.5294C32.0004 16.5294 31.9241 16.558 31.8764 16.6057C31.5521 16.9204 31.2374 17.2447 30.9131 17.569C30.8845 17.5976 30.8654 17.6262 30.8177 17.6739H31.018C32.0195 17.6739 33.0114 17.6739 34.0129 17.6739C34.2514 17.6739 34.4421 17.7598 34.5566 17.9791C34.7664 18.3797 34.4898 18.8185 34.032 18.8185C32.6299 18.8185 31.2183 18.8185 29.8162 18.8185C29.7113 18.8185 29.6445 18.8471 29.5682 18.9234C28.2234 20.2873 26.869 21.6417 25.5241 22.9961C25.2093 23.3109 24.8851 23.6161 24.5608 23.9309M34.0606 33.5738C34.0606 33.5738 34.0797 33.5833 34.0892 33.5929C34.1178 33.5642 34.1369 33.5356 34.1655 33.507C35.2147 32.2289 36.2639 30.9413 37.3131 29.6632C39.1921 27.3645 41.0806 25.0659 42.9691 22.7672C43.1312 22.5669 43.2266 22.3189 43.2266 22.0614C43.2266 19.7818 43.2266 17.5118 43.2266 15.2322C43.2266 15.2036 43.2266 15.175 43.2076 15.1177C43.1694 15.1654 43.1408 15.2036 43.1217 15.2227C41.5479 16.8823 39.9837 18.5419 38.4195 20.2015L34.1846 24.6844C34.1178 24.7607 34.0606 24.8179 34.0606 24.9323C34.0606 27.7747 34.0606 30.617 34.0606 33.4593V33.5833V33.5738ZM32.9065 25.1517H23.7596V34.2987H32.9065V25.1517Z" fill="#C6C6C6"/>
<path d="M47.0021 28.5852H41.1743C41.1743 28.5852 41.2125 28.5185 41.2316 28.4994C41.4986 28.1751 41.7657 27.8413 42.0423 27.517C42.0709 27.4788 42.1377 27.4407 42.1949 27.4407C44.0739 27.4407 45.9529 27.4407 47.8319 27.4407C48.4709 27.4407 48.9574 27.9557 48.9574 28.6043C48.9574 30.5787 48.9574 32.5435 48.9574 34.5179C48.9574 35.1378 48.9574 35.7578 48.9574 36.3778C48.9574 36.9024 48.7952 37.3793 48.4614 37.7799C47.2024 39.3346 45.9243 40.8702 44.6653 42.4249C43.4825 43.8747 42.2903 45.3244 41.1076 46.7742C41.0313 46.8601 39.0092 49.3495 38.704 49.6642C38.2748 49.6642 37.7407 48.9298 38.4083 48.3098C38.4369 48.2717 43.0056 42.6538 44.7034 40.5745C45.6477 39.4299 46.5919 38.2758 47.5362 37.1313C47.7174 36.9024 47.8223 36.6448 47.8223 36.3587C47.8223 34.0887 47.8223 31.8282 47.8223 29.5676V29.4532C47.8223 29.4532 47.746 29.52 47.727 29.5486C46.611 30.7313 45.4855 31.914 44.3696 33.0967C42.6909 34.8708 41.0217 36.6448 39.3431 38.4189C39.1332 38.6383 38.9234 38.8577 38.7231 39.077C38.6849 39.1247 38.6563 39.2106 38.6563 39.2773C38.6563 40.6222 38.6563 41.9671 38.6563 43.3119V49.1301H37.5213V39.5062H28.3553V48.6532H37.7216C37.8265 48.9489 37.7025 49.0156 37.9982 49.0156C38.5037 49.0156 38.6086 49.0156 39.1141 49.0156H39.2477C39.2477 49.0156 39.2572 49.0347 39.2667 49.0443C39.076 49.2636 38.8948 49.483 38.704 49.6928C38.5991 49.7978 38.4465 49.8073 38.3034 49.8073C36.577 49.8073 34.8411 49.8073 33.1147 49.8073C31.541 49.8073 29.9767 49.8073 28.4125 49.8073C27.6876 49.8073 27.2012 49.3209 27.2012 48.596C27.2012 45.4103 27.2012 42.215 27.2012 39.0293C27.2012 38.8004 27.2679 38.6192 27.4301 38.4571C28.0119 37.8752 28.5842 37.2934 29.166 36.7212C29.2137 36.6735 29.29 36.6448 29.3568 36.6448C29.805 36.6448 30.2629 36.6448 30.7112 36.6448H30.8638C30.2915 37.2267 29.7383 37.7799 29.1565 38.3617H29.3091C32.1132 38.3617 34.9174 38.3617 37.7121 38.3617C37.7979 38.3617 37.8647 38.3331 37.9219 38.2663C40.4876 35.548 43.0533 32.8296 45.6191 30.1113C46.0483 29.6535 46.487 29.1957 46.9162 28.7378C46.9448 28.7092 46.9639 28.6806 47.0116 28.6234" fill="#C6C6C6"/>
<path d="M21.4703 29.4627V29.663C21.4703 30.0827 21.4703 30.5024 21.4703 30.922C21.4703 31.0174 21.4416 31.0842 21.3749 31.151C20.1731 32.3527 18.9808 33.5545 17.779 34.7659C16.6345 35.92 15.4899 37.0741 14.3454 38.2282C14.3168 38.2568 14.2977 38.2758 14.2595 38.3235C14.3168 38.3235 14.3549 38.3235 14.3931 38.3235C17.1972 38.3235 20.0014 38.3235 22.8151 38.3235C22.901 38.3235 22.9582 38.2949 23.0154 38.2282C23.5018 37.7131 23.9787 37.2076 24.4652 36.6925C24.532 36.6258 24.5892 36.5972 24.675 36.5972C25.1042 36.5972 25.5334 36.5972 25.9627 36.5972H26.1343C26.0866 36.6544 26.058 36.6925 26.0199 36.7211C25.295 37.4842 24.5701 38.2568 23.8452 39.0198C23.7785 39.0866 23.7594 39.1533 23.7594 39.2487C23.7594 42.1006 23.7594 44.962 23.7594 47.8138C23.7594 47.8425 23.7594 47.8711 23.7594 47.9283C24.5224 46.9936 25.2664 46.0875 26.0294 45.1527C26.0294 45.2195 26.0294 45.2481 26.0294 45.2863C26.0294 45.8109 26.0294 46.3259 26.0294 46.8505C26.0294 46.9173 26.0008 46.984 25.9627 47.0317C25.295 47.852 24.6273 48.6627 23.9597 49.483C23.8071 49.6738 23.6163 49.7596 23.3683 49.7596C20.0682 49.7596 16.768 49.7596 13.4679 49.7596C12.7811 49.7596 12.2852 49.2636 12.2852 48.5769C12.2852 45.3721 12.2852 42.1769 12.2852 38.9721C12.2852 38.7337 12.3615 38.5524 12.5331 38.3903C14.2023 36.7116 15.8714 35.0329 17.5406 33.3447C18.7996 32.0761 20.0682 30.798 21.3272 29.5295C21.3558 29.4913 21.3844 29.4532 21.4035 29.415C21.4226 29.4246 21.4321 29.4341 21.4512 29.4437M22.6053 39.4681H13.4583V48.615H22.6053V39.4681Z" fill="#C6C6C6"/>
<path d="M32.9066 46.9079C32.1626 46.9079 31.4186 46.9079 30.6747 46.9079C30.2836 46.9079 30.0547 46.6694 30.0547 46.2879V41.8146C30.0547 41.4235 30.2931 41.1851 30.6842 41.1851H35.1575C35.5486 41.1851 35.787 41.4235 35.787 41.805V46.2879C35.787 46.6789 35.5486 46.9079 35.1671 46.9079C34.4136 46.9079 33.6696 46.9079 32.9161 46.9079M34.6329 42.3392H31.2088V45.7538H34.6329V42.3392Z" fill="#C6C6C6"/>
<path d="M31.1994 29.7203C31.1994 30.4738 31.1994 31.2177 31.1994 31.9712C31.1994 32.3528 30.9609 32.5912 30.5794 32.5912C29.0819 32.5912 27.594 32.5912 26.0965 32.5912C25.7055 32.5912 25.4766 32.3528 25.4766 31.9712C25.4766 30.4738 25.4766 28.9858 25.4766 27.4884C25.4766 27.0973 25.7055 26.8684 26.0965 26.8684C27.594 26.8684 29.0819 26.8684 30.5794 26.8684C30.9609 26.8684 31.1994 27.1069 31.1994 27.4884V29.7393V29.7203ZM26.6307 31.4371H30.0453V28.013H26.6307V31.4371Z" fill="#C6C6C6"/>
<path d="M20.8886 44.0465V46.2879C20.8886 46.6885 20.6597 46.9174 20.2591 46.9174H15.7953C15.3852 46.9174 15.1562 46.6885 15.1562 46.2879C15.1562 44.8 15.1562 43.312 15.1562 41.8241C15.1562 41.4235 15.3852 41.1851 15.7953 41.1851H20.2591C20.6597 41.1851 20.8886 41.414 20.8886 41.8146V44.0465ZM16.3199 42.3296V45.7538C16.3199 45.7538 16.3962 45.7538 16.4343 45.7538C17.4931 45.7538 18.5613 45.7538 19.62 45.7538C19.725 45.7538 19.7536 45.7251 19.744 45.6202C19.744 44.5615 19.744 43.5028 19.744 42.4441C19.744 42.4059 19.744 42.3678 19.744 42.3201H16.3199V42.3296Z" fill="#C6C6C6"/>
</svg>
