<svg width="64" height="64" viewBox="0 0 64 64" fill="none" xmlns="http://www.w3.org/2000/svg">
<path d="M63.5228 31.9999C63.5228 49.4068 49.4065 63.523 31.9997 63.523C14.5928 63.523 0.476562 49.4068 0.476562 31.9999C0.476562 14.5931 14.5928 0.476807 31.9997 0.476807C49.4065 0.476807 63.5228 14.5931 63.5228 31.9999Z" stroke="#C6C6C6" stroke-miterlimit="10"/>
<path d="M49.9979 24.7034L46.5452 21.4128V15.1082C46.5452 14.6408 46.1636 14.2498 45.6867 14.2498C45.2098 14.2498 44.8283 14.6313 44.8283 15.1082V21.4128L42.2626 23.8641L39.6969 21.4128V15.1082C39.6969 14.6408 39.3154 14.2498 38.8385 14.2498C38.3616 14.2498 37.98 14.6313 37.98 15.1082V21.4128L35.4143 23.8641L32.8486 21.4128V15.1082C32.8486 14.6408 32.4671 14.2498 31.9902 14.2498C31.5133 14.2498 31.1318 14.6313 31.1318 15.1082V21.4128L28.566 23.8641L26.0003 21.4128V15.1082C26.0003 14.6408 25.6188 14.2498 25.1419 14.2498C24.665 14.2498 24.2835 14.6313 24.2835 15.1082V21.4128L21.7177 23.8641L19.152 21.4128V15.1082C19.152 14.6408 18.7705 14.2498 18.2936 14.2498C17.8167 14.2498 17.4352 14.6313 17.4352 15.1082V21.4128L13.9824 24.7034V41.1469L17.4352 44.5234V50.9234C17.4352 51.3907 17.8167 51.7818 18.2936 51.7818C18.7705 51.7818 19.152 51.4003 19.152 50.9234V44.5234L21.7177 42.0149L24.2835 44.5234V50.9234C24.2835 51.3907 24.665 51.7818 25.1419 51.7818C25.6188 51.7818 26.0003 51.4003 26.0003 50.9234V44.5234L28.566 42.0149L31.1318 44.5234V50.9234C31.1318 51.3907 31.5133 51.7818 31.9902 51.7818C32.4671 51.7818 32.8486 51.4003 32.8486 50.9234V44.5234L35.4143 42.0149L37.98 44.5234V50.9234C37.98 51.3907 38.3616 51.7818 38.8385 51.7818C39.3154 51.7818 39.6969 51.4003 39.6969 50.9234V44.5234L42.2626 42.0149L44.8283 44.5234V50.9234C44.8283 51.3907 45.2098 51.7818 45.6867 51.7818C46.1636 51.7818 46.5452 51.4003 46.5452 50.9234V44.5234L49.9979 41.1469V24.7034ZM38.848 42.9687L36.3109 40.4888V25.3806L38.7526 23.0533C38.7526 23.0533 38.8194 23.0533 38.848 23.0533C38.8766 23.0533 38.9148 23.0533 38.9434 23.0533L41.3851 25.3806V40.4888L38.848 42.9687ZM31.9997 42.9687L29.4626 40.4888V25.3806L31.9043 23.0533C31.9043 23.0533 31.9711 23.0533 31.9997 23.0533C32.0283 23.0533 32.0665 23.0533 32.0951 23.0533L34.5368 25.3806V40.4888L31.9997 42.9687ZM25.161 42.9687L22.6239 40.4888V25.3806L25.0656 23.0533C25.0656 23.0533 25.1323 23.0533 25.161 23.0533C25.1896 23.0533 25.2277 23.0533 25.2563 23.0533L27.6981 25.3806V40.4888L25.161 42.9687ZM15.7183 25.4378L18.2173 23.0533C18.2173 23.0533 18.2841 23.0533 18.3127 23.0533C18.3413 23.0533 18.3794 23.0533 18.4081 23.0533L20.8498 25.3806V40.4888L18.3127 42.9687L15.7183 40.4316V25.4378ZM48.2811 40.4316L45.6867 42.9687L43.1496 40.4888V25.3806L45.5914 23.0533C45.5914 23.0533 45.6581 23.0533 45.6867 23.0533C45.7154 23.0533 45.7535 23.0533 45.7821 23.0533L48.2811 25.4378V40.4316Z" fill="#C6C6C6"/>
</svg>
