<svg width="64" height="64" viewBox="0 0 64 64" fill="none" xmlns="http://www.w3.org/2000/svg">
<path d="M31.9997 63.523C49.4094 63.523 63.5228 49.4096 63.5228 31.9999C63.5228 14.5902 49.4094 0.476807 31.9997 0.476807C14.5899 0.476807 0.476562 14.5902 0.476562 31.9999C0.476562 49.4096 14.5899 63.523 31.9997 63.523Z" stroke="#C6C6C6" stroke-miterlimit="10"/>
<path d="M23.1677 27.6791C22.8624 26.6872 22.376 25.7048 22.2997 24.6937C22.1662 22.9006 22.3379 21.0788 22.2711 19.2762C22.2139 17.8073 22.8052 17.0633 24.2836 17.235C25.886 17.4162 26.4869 16.739 26.3343 15.1844C26.2675 14.4785 26.3057 13.7632 26.3343 13.0478C26.4583 10.32 28.4136 8.37422 31.0365 8.34561C33.8216 8.32653 35.7674 10.1769 35.9104 13.0192C35.9581 13.8967 35.9581 14.7742 35.9104 15.6517C35.8437 16.7963 36.3683 17.1778 37.4651 17.2255C39.945 17.3304 39.9545 17.3876 39.9832 19.9343C39.9927 21.4127 40.0976 22.9006 39.9545 24.3694C39.8496 25.5045 39.4204 26.6109 39.1343 27.7268C38.934 27.7268 38.7432 27.7268 38.5429 27.7364C39.2487 28.4803 40.1167 29.1194 40.6127 29.9778C41.3185 31.2177 42.1674 32.5912 42.2246 33.9361C42.4249 38.5811 42.3295 43.2452 42.3009 47.8997C42.2818 50.2937 41.2899 51.3715 38.9149 51.4002C33.6595 51.4669 28.404 51.4478 23.1486 51.4002C21.0979 51.3811 20.001 50.2461 19.982 48.1954C19.9438 43.3787 19.982 38.562 19.9629 33.7358C19.9629 31.8759 20.9644 30.5405 22.1757 29.3101C22.6717 28.8142 23.2726 28.4136 23.8258 27.9748C23.6064 27.8794 23.387 27.7841 23.1772 27.6887M31.0747 49.3399C33.4306 49.3399 35.7864 49.2827 38.1423 49.3495C39.573 49.3876 40.1358 48.7772 40.1167 47.4037C40.0976 45.5438 40.1453 43.6839 40.1167 41.8145C40.0785 37.3125 40.6985 37.8276 35.9104 37.7703C34.6228 37.7513 34.2222 38.2472 34.165 39.5063C34.0791 41.576 33.8884 43.6553 33.5545 45.6964C33.3542 46.8982 32.5435 47.7852 31.17 47.7662C29.8824 47.7376 28.9668 47.1176 28.7092 45.7918C28.4517 44.4469 28.0988 43.0925 28.0797 41.7382C27.9939 37.1504 28.6425 37.8466 23.6159 37.7799C22.4332 37.7608 22.1089 38.3331 22.128 39.4013C22.1662 42.0815 22.1852 44.7712 22.1471 47.4514C22.128 48.7772 22.7003 49.359 24.0165 49.3399C26.3724 49.3113 28.7283 49.3399 31.0842 49.3399M31.2177 25.0753C32.0952 25.0753 32.9632 25.0753 33.8407 25.0753C38.2282 25.018 37.7322 25.7238 37.7894 20.9835C37.799 19.7817 37.303 19.3238 36.1298 19.3429C33.5641 19.3811 30.9984 19.3429 28.4326 19.362C24.1787 19.4002 24.4744 18.5227 24.4934 23.6255C24.4934 24.6556 24.9322 25.1134 25.9814 25.0943C27.7268 25.0562 29.4723 25.0943 31.2177 25.0943M34.7754 27.9557C34.5942 28.032 34.413 28.0988 34.2317 28.1751C34.2317 29.4627 34.2127 30.7408 34.2317 32.0189C34.2794 35.9772 33.6499 35.6052 37.9516 35.6148C40.0881 35.6148 40.8034 34.5656 39.7829 32.6007C38.6765 30.4833 36.7784 29.1194 34.7754 27.9462M27.9367 28.1465C27.6887 28.0034 27.4502 27.8604 27.2022 27.7173C25.638 29.272 23.9784 30.7408 22.5763 32.4195C22.1185 32.9727 21.9468 34.3176 22.2997 34.8899C23.2153 36.3683 24.875 35.4145 26.2007 35.548C26.7444 35.6052 27.8317 35.0806 27.8508 34.7754C27.9939 32.5721 27.9271 30.3593 27.9271 28.1465M28.5471 14.4022C28.5471 16.2653 29.4723 17.1937 31.3227 17.1873C32.9123 17.1873 33.7103 16.402 33.7167 14.8314C33.7167 14.3355 33.7358 13.849 33.7072 13.3531C33.6022 11.4645 32.6389 10.463 31.0174 10.5203C29.5009 10.5775 28.6329 11.5981 28.5566 13.4103C28.5471 13.7346 28.5566 14.0684 28.5566 14.3927M31.9617 31.5134H31.9522C31.9522 30.4261 32.0094 29.3292 31.914 28.2419C31.8854 27.9271 31.4085 27.6601 31.1319 27.3644C30.8553 27.641 30.3402 27.908 30.3307 28.1847C30.2544 30.3116 30.2449 32.4386 30.3212 34.5656C30.3307 34.8994 30.8839 35.2046 31.1891 35.5289C31.4466 35.176 31.8759 34.8326 31.914 34.4607C32.0189 33.4878 31.9522 32.4958 31.9522 31.5134M30.5882 44.7999H31.6374C31.7328 42.7396 31.8568 40.6699 31.8854 38.6002C31.8854 38.3522 31.3608 37.9706 31.027 37.9039C30.8457 37.8657 30.3307 38.3426 30.3402 38.5906C30.3784 40.6604 30.4928 42.7301 30.5882 44.8094" fill="#C6C6C6"/>
</svg>
