<svg width="64" height="64" viewBox="0 0 64 64" fill="none" xmlns="http://www.w3.org/2000/svg">
<path d="M63.5228 31.9999C63.5228 49.4068 49.4065 63.523 31.9997 63.523C14.5928 63.523 0.476562 49.4068 0.476562 31.9999C0.476562 14.5931 14.5928 0.476807 31.9997 0.476807C49.4065 0.476807 63.5228 14.5931 63.5228 31.9999Z" stroke="#C6C6C6" stroke-miterlimit="10"/>
<path d="M37.2362 18.3796H35.8627V13.4866H25.6666V18.3796H24.2932C22.4428 18.3796 20.9453 19.877 20.9453 21.7274V47.7757C20.9453 49.6261 22.4428 51.1235 24.2932 51.1235H37.2267C39.0771 51.1235 40.5745 49.6261 40.5745 47.7757V21.7274C40.5745 19.8866 39.0771 18.3796 37.2267 18.3796M27.2976 15.1176H34.2413V18.3891H27.2976V15.1176ZM38.9531 47.7757C38.9531 48.72 38.1805 49.4925 37.2267 49.4925H24.2932C23.3489 49.4925 22.5668 48.72 22.5668 47.7757V21.7274C22.5668 20.7736 23.3394 20.001 24.2932 20.001H37.2267C38.1709 20.001 38.9531 20.7736 38.9531 21.7274V47.7757Z" fill="#C6C6C6"/>
<path d="M13.9345 27.5934L12.7041 26.5347C10.7775 28.7666 9.71875 31.6089 9.71875 34.5561C9.71875 37.799 10.9682 40.8607 13.2478 43.1785L14.4019 42.0339C12.4275 40.0309 11.3402 37.3698 11.3402 34.5561C11.3402 31.9999 12.2559 29.5296 13.925 27.5934" fill="#C6C6C6"/>
<path d="M16.424 30.7982L15.0791 29.8921C14.1444 31.2751 13.6484 32.887 13.6484 34.5657C13.6484 36.4733 14.2684 38.2665 15.4607 39.7544L16.7387 38.7434C15.7849 37.5416 15.2794 36.1013 15.2794 34.5657C15.2794 33.2209 15.68 31.9141 16.424 30.8077" fill="#C6C6C6"/>
<path d="M48.596 26.5347L47.3656 27.5934C49.0347 29.5296 49.9504 31.9999 49.9504 34.5561C49.9504 37.3698 48.863 40.0214 46.8887 42.0339L48.0428 43.1785C50.3224 40.8703 51.5718 37.8086 51.5718 34.5657C51.5718 31.6184 50.5131 28.7666 48.5864 26.5442" fill="#C6C6C6"/>
<path d="M46.2202 29.8921L44.8753 30.7982C45.6288 31.9142 46.0199 33.2113 46.0199 34.5562C46.0199 36.0918 45.5143 37.532 44.5605 38.7338L45.8291 39.7449C47.0118 38.2569 47.6413 36.4638 47.6413 34.5562C47.6413 32.887 47.1453 31.2656 46.2106 29.8826" fill="#C6C6C6"/>
<path d="M25.7426 35.9964C25.7426 35.9964 25.7712 35.9964 25.7998 35.9583C25.7522 35.9678 25.7331 35.9773 25.7426 35.9964Z" fill="#C6C6C6"/>
<path d="M32.3057 26.1721C32.3057 26.1721 26.4494 35.3286 25.8008 35.9676C26.3349 35.8627 30.3313 36.0058 30.3313 36.0058L28.3665 43.9414L35.2529 33.1921H30.9227L32.2962 26.1817L32.3057 26.1721Z" fill="#C6C6C6"/>
</svg>
